<svg xmlns="http://www.w3.org/2000/svg" xmlns:xlink="http://www.w3.org/1999/xlink"><symbol id="icon-arrow-bottom" viewBox="0 0 16 9">
    <path fill="none" fill-rule="evenodd" stroke="#FFF" stroke-linecap="round" stroke-width="2" d="M346 2890L353.304 2896 360 2890" transform="translate(-345 -2889)"/>
</symbol><symbol id="icon-close" viewBox="0 0 14 14">
    <g fill="none" fill-rule="evenodd">
        <circle cx="7" cy="7" r="7" fill="#536578"/>
        <path fill="#142536" fill-rule="nonzero" d="M11.343 3.59L10.474 2.722 7.032 6.164 3.59 2.722 2.722 3.59 6.164 7.032 2.722 10.474 3.59 11.343 7.032 7.901 10.474 11.343 11.343 10.474 7.901 7.032z"/>
    </g>
</symbol><symbol id="icon-user" viewBox="0 0 16 16">
    <path fill="#8A7C5D" d="M8 8c2.21 0 4-1.79 4-4s-1.79-4-4-4-4 1.79-4 4 1.79 4 4 4zm0 2c-2.67 0-8 1.34-8 4v2h16v-2c0-2.66-5.33-4-8-4z"/>
</symbol></svg>